<svg xmlns="http://www.w3.org/2000/svg" xmlns:xlink="http://www.w3.org/1999/xlink" width="1920" zoomAndPan="magnify" viewBox="0 0 1440 809.999993" height="1080" preserveAspectRatio="xMidYMid meet" version="1.0"><defs><g/><clipPath id="ff6457ea75"><path d="M 744 382 L 1252 382 L 1252 688.953125 L 744 688.953125 Z M 744 382 " clip-rule="nonzero"/></clipPath><clipPath id="aea26d1747"><path d="M 1251.964844 421.207031 L 1251.964844 650.703125 C 1251.964844 660.847656 1247.9375 670.578125 1240.761719 677.75 C 1233.589844 684.925781 1223.859375 688.953125 1213.714844 688.953125 L 783.144531 688.953125 C 773 688.953125 763.269531 684.925781 756.097656 677.75 C 748.921875 670.578125 744.894531 660.847656 744.894531 650.703125 L 744.894531 421.207031 C 744.894531 411.0625 748.921875 401.332031 756.097656 394.160156 C 763.269531 386.984375 773 382.957031 783.144531 382.957031 L 1213.714844 382.957031 C 1223.859375 382.957031 1233.589844 386.984375 1240.761719 394.160156 C 1247.9375 401.332031 1251.964844 411.0625 1251.964844 421.207031 Z M 1251.964844 421.207031 " clip-rule="nonzero"/></clipPath><clipPath id="c79bf899a2"><path d="M 1 0.800781 L 508 0.800781 L 508 306.953125 L 1 306.953125 Z M 1 0.800781 " clip-rule="nonzero"/></clipPath><clipPath id="cb683e4c6c"><path d="M 507.964844 39.207031 L 507.964844 268.703125 C 507.964844 278.847656 503.9375 288.578125 496.761719 295.75 C 489.589844 302.925781 479.859375 306.953125 469.714844 306.953125 L 39.144531 306.953125 C 29 306.953125 19.269531 302.925781 12.097656 295.75 C 4.921875 288.578125 0.894531 278.847656 0.894531 268.703125 L 0.894531 39.207031 C 0.894531 29.0625 4.921875 19.332031 12.097656 12.160156 C 19.269531 4.984375 29 0.957031 39.144531 0.957031 L 469.714844 0.957031 C 479.859375 0.957031 489.589844 4.984375 496.761719 12.160156 C 503.9375 19.332031 507.964844 29.0625 507.964844 39.207031 Z M 507.964844 39.207031 " clip-rule="nonzero"/></clipPath><clipPath id="d35bce69bf"><rect x="0" width="508" y="0" height="307"/></clipPath><clipPath id="ef6879996d"><path d="M 631 233 L 1153 233 L 1153 686 L 631 686 Z M 631 233 " clip-rule="nonzero"/></clipPath><clipPath id="fbe9cf0db9"><path d="M 1030.679688 219.109375 L 1166.90625 494.445312 L 753.367188 699.054688 L 617.136719 423.71875 Z M 1030.679688 219.109375 " clip-rule="nonzero"/></clipPath><clipPath id="a9b6093480"><path d="M 1047.097656 254.996094 L 1148.875 460.691406 C 1153.371094 469.785156 1154.074219 480.292969 1150.824219 489.902344 C 1147.578125 499.511719 1140.644531 507.441406 1131.550781 511.9375 L 788.453125 681.695312 C 779.363281 686.191406 768.855469 686.894531 759.246094 683.648438 C 749.632812 680.398438 741.707031 673.464844 737.207031 664.375 L 635.433594 458.675781 C 630.9375 449.582031 630.234375 439.074219 633.480469 429.464844 C 636.730469 419.855469 643.664062 411.925781 652.753906 407.429688 L 995.855469 237.671875 C 1004.945312 233.175781 1015.453125 232.472656 1025.0625 235.71875 C 1034.675781 238.96875 1042.601562 245.902344 1047.097656 254.996094 Z M 1047.097656 254.996094 " clip-rule="nonzero"/></clipPath><clipPath id="8cad15206c"><path d="M 0 0 L 522 0 L 522 453 L 0 453 Z M 0 0 " clip-rule="nonzero"/></clipPath><clipPath id="4c2683ed8f"><path d="M 399.679688 -13.890625 L 535.90625 261.445312 L 122.367188 466.054688 L -13.863281 190.71875 Z M 399.679688 -13.890625 " clip-rule="nonzero"/></clipPath><clipPath id="3ae38c15b0"><path d="M 416.097656 21.996094 L 517.875 227.691406 C 522.371094 236.785156 523.074219 247.292969 519.824219 256.902344 C 516.578125 266.511719 509.644531 274.441406 500.550781 278.9375 L 157.453125 448.695312 C 148.363281 453.191406 137.855469 453.894531 128.246094 450.648438 C 118.632812 447.398438 110.707031 440.464844 106.207031 431.375 L 4.433594 225.675781 C -0.0625 216.582031 -0.765625 206.074219 2.480469 196.464844 C 5.730469 186.855469 12.664062 178.925781 21.753906 174.429688 L 364.855469 4.671875 C 373.945312 0.175781 384.453125 -0.527344 394.0625 2.71875 C 403.675781 5.96875 411.601562 12.902344 416.097656 21.996094 Z M 416.097656 21.996094 " clip-rule="nonzero"/></clipPath><clipPath id="81bed1bf0f"><rect x="0" width="522" y="0" height="453"/></clipPath><clipPath id="e75ad90f6c"><path d="M 443 127 L 951 127 L 951 639 L 443 639 Z M 443 127 " clip-rule="nonzero"/></clipPath><clipPath id="87881bd5c6"><path d="M 745.859375 109.660156 L 967.382812 322.488281 L 647.726562 655.207031 L 426.203125 442.378906 Z M 745.859375 109.660156 " clip-rule="nonzero"/></clipPath><clipPath id="dc6f8c8bd9"><path d="M 773.472656 137.851562 L 938.972656 296.847656 C 946.285156 303.878906 950.511719 313.523438 950.714844 323.667969 C 950.917969 333.808594 947.082031 343.617188 940.054688 350.933594 L 674.847656 626.976562 C 667.820312 634.289062 658.175781 638.515625 648.03125 638.71875 C 637.890625 638.921875 628.082031 635.085938 620.765625 628.058594 L 455.269531 469.058594 C 447.953125 462.03125 443.730469 452.382812 443.527344 442.242188 C 443.324219 432.101562 447.160156 422.292969 454.1875 414.976562 L 719.390625 138.933594 C 726.417969 131.617188 736.066406 127.394531 746.207031 127.191406 C 756.351562 126.988281 766.160156 130.824219 773.472656 137.851562 Z M 773.472656 137.851562 " clip-rule="nonzero"/></clipPath><clipPath id="fe10245d65"><path d="M 0.28125 0 L 508 0 L 508 512 L 0.28125 512 Z M 0.28125 0 " clip-rule="nonzero"/></clipPath><clipPath id="0cd14d2931"><path d="M 302.859375 -17.339844 L 524.382812 195.488281 L 204.726562 528.207031 L -16.796875 315.378906 Z M 302.859375 -17.339844 " clip-rule="nonzero"/></clipPath><clipPath id="0c49aae8b3"><path d="M 330.472656 10.851562 L 495.972656 169.847656 C 503.285156 176.878906 507.511719 186.523438 507.714844 196.667969 C 507.917969 206.808594 504.082031 216.617188 497.054688 223.933594 L 231.847656 499.976562 C 224.820312 507.289062 215.175781 511.515625 205.03125 511.71875 C 194.890625 511.921875 185.082031 508.085938 177.765625 501.058594 L 12.269531 342.058594 C 4.953125 335.03125 0.730469 325.382812 0.527344 315.242188 C 0.324219 305.101562 4.160156 295.292969 11.1875 287.976562 L 276.390625 11.933594 C 283.417969 4.617188 293.066406 0.394531 303.207031 0.191406 C 313.351562 -0.0117188 323.160156 3.824219 330.472656 10.851562 Z M 330.472656 10.851562 " clip-rule="nonzero"/></clipPath><clipPath id="58936a7acb"><rect x="0" width="508" y="0" height="512"/></clipPath><clipPath id="8866342b6f"><path d="M 298 123 L 741 123 L 741 644 L 298 644 Z M 298 123 " clip-rule="nonzero"/></clipPath><clipPath id="035a5139d4"><path d="M 472 109.773438 L 752.75 234.460938 L 565.476562 656.132812 L 284.726562 531.445312 Z M 472 109.773438 " clip-rule="nonzero"/></clipPath><clipPath id="e1c56cd006"><path d="M 507.566406 126.875 L 717.308594 220.027344 C 726.578125 224.144531 733.835938 231.777344 737.480469 241.242188 C 741.125 250.710938 740.859375 261.238281 736.742188 270.507812 L 581.367188 620.355469 C 577.25 629.625 569.617188 636.882812 560.152344 640.527344 C 550.683594 644.171875 540.15625 643.90625 530.886719 639.789062 L 321.140625 546.636719 C 311.871094 542.519531 304.613281 534.886719 300.96875 525.417969 C 297.324219 515.953125 297.589844 505.425781 301.707031 496.152344 L 457.082031 146.308594 C 461.199219 137.035156 468.832031 129.78125 478.296875 126.136719 C 487.765625 122.492188 498.292969 122.757812 507.566406 126.875 Z M 507.566406 126.875 " clip-rule="nonzero"/></clipPath><clipPath id="c3356131f1"><path d="M 0 0 L 443 0 L 443 521 L 0 521 Z M 0 0 " clip-rule="nonzero"/></clipPath><clipPath id="39dfea007a"><path d="M 174 -13.226562 L 454.75 111.460938 L 267.476562 533.132812 L -13.273438 408.445312 Z M 174 -13.226562 " clip-rule="nonzero"/></clipPath><clipPath id="2638e9ece3"><path d="M 209.566406 3.875 L 419.308594 97.027344 C 428.578125 101.144531 435.835938 108.777344 439.480469 118.242188 C 443.125 127.710938 442.859375 138.238281 438.742188 147.507812 L 283.367188 497.355469 C 279.25 506.625 271.617188 513.882812 262.152344 517.527344 C 252.683594 521.171875 242.15625 520.90625 232.886719 516.789062 L 23.140625 423.636719 C 13.871094 419.519531 6.613281 411.886719 2.96875 402.417969 C -0.675781 392.953125 -0.410156 382.425781 3.707031 373.152344 L 159.082031 23.308594 C 163.199219 14.035156 170.832031 6.78125 180.296875 3.136719 C 189.765625 -0.507812 200.292969 -0.242188 209.566406 3.875 Z M 209.566406 3.875 " clip-rule="nonzero"/></clipPath><clipPath id="485ba487c7"><rect x="0" width="443" y="0" height="521"/></clipPath><clipPath id="1562d96891"><path d="M 188 230 L 494.027344 230 L 494.027344 690 L 188 690 Z M 188 230 " clip-rule="nonzero"/></clipPath><clipPath id="2f55ffe047"><path d="M 226.277344 230.03125 L 455.777344 230.03125 C 465.921875 230.03125 475.648438 234.0625 482.824219 241.234375 C 489.996094 248.40625 494.027344 258.136719 494.027344 268.28125 L 494.027344 651.078125 C 494.027344 661.222656 489.996094 670.953125 482.824219 678.125 C 475.648438 685.296875 465.921875 689.328125 455.777344 689.328125 L 226.277344 689.328125 C 216.132812 689.328125 206.402344 685.296875 199.230469 678.125 C 192.058594 670.953125 188.027344 661.222656 188.027344 651.078125 L 188.027344 268.28125 C 188.027344 258.136719 192.058594 248.40625 199.230469 241.234375 C 206.402344 234.0625 216.132812 230.03125 226.277344 230.03125 Z M 226.277344 230.03125 " clip-rule="nonzero"/></clipPath><clipPath id="bf5db721c0"><path d="M 0 0 L 306.027344 0 L 306.027344 459.519531 L 0 459.519531 Z M 0 0 " clip-rule="nonzero"/></clipPath><clipPath id="46c4b3ddb2"><path d="M 38.277344 0.03125 L 267.777344 0.03125 C 277.921875 0.03125 287.648438 4.0625 294.824219 11.234375 C 301.996094 18.40625 306.027344 28.136719 306.027344 38.28125 L 306.027344 421.078125 C 306.027344 431.222656 301.996094 440.953125 294.824219 448.125 C 287.648438 455.296875 277.921875 459.328125 267.777344 459.328125 L 38.277344 459.328125 C 28.132812 459.328125 18.402344 455.296875 11.230469 448.125 C 4.058594 440.953125 0.0273438 431.222656 0.0273438 421.078125 L 0.0273438 38.28125 C 0.0273438 28.136719 4.058594 18.40625 11.230469 11.234375 C 18.402344 4.0625 28.132812 0.03125 38.277344 0.03125 Z M 38.277344 0.03125 " clip-rule="nonzero"/></clipPath><clipPath id="f0f9027a8d"><rect x="0" width="307" y="0" height="460"/></clipPath></defs><g clip-path="url(#ff6457ea75)"><g clip-path="url(#aea26d1747)"><g transform="matrix(1, 0, 0, 1, 744, 382)"><g clip-path="url(#d35bce69bf)"><g clip-path="url(#c79bf899a2)"><g clip-path="url(#cb683e4c6c)"><path fill="#2b192e" d="M 507.964844 0.957031 L 507.964844 306.953125 L 1.15625 306.953125 L 1.15625 0.957031 Z M 507.964844 0.957031 " fill-opacity="1" fill-rule="nonzero"/></g></g></g></g></g></g><g clip-path="url(#ef6879996d)"><g clip-path="url(#fbe9cf0db9)"><g clip-path="url(#a9b6093480)"><g transform="matrix(1, 0, 0, 1, 631, 233)"><g clip-path="url(#81bed1bf0f)"><g clip-path="url(#8cad15206c)"><g clip-path="url(#4c2683ed8f)"><g clip-path="url(#3ae38c15b0)"><path fill="#ce8ca5" d="M 399.136719 -12.289062 L 534.835938 261.976562 L 123.4375 465.523438 L -12.261719 191.257812 Z M 399.136719 -12.289062 " fill-opacity="1" fill-rule="nonzero"/></g></g></g></g></g></g></g></g><g clip-path="url(#e75ad90f6c)"><g clip-path="url(#87881bd5c6)"><g clip-path="url(#dc6f8c8bd9)"><g transform="matrix(1, 0, 0, 1, 443, 127)"><g clip-path="url(#58936a7acb)"><g clip-path="url(#fe10245d65)"><g clip-path="url(#0cd14d2931)"><g clip-path="url(#0c49aae8b3)"><path fill="#50006c" d="M 302.890625 -15.648438 L 523.554688 196.347656 L 205.554688 527.34375 L -15.105469 315.34375 Z M 302.890625 -15.648438 " fill-opacity="1" fill-rule="nonzero"/></g></g></g></g></g></g></g></g><g clip-path="url(#8866342b6f)"><g clip-path="url(#035a5139d4)"><g clip-path="url(#e1c56cd006)"><g transform="matrix(1, 0, 0, 1, 298, 123)"><g clip-path="url(#485ba487c7)"><g clip-path="url(#c3356131f1)"><g clip-path="url(#39dfea007a)"><g clip-path="url(#2638e9ece3)"><path fill="#2b192e" d="M 174.605469 -11.652344 L 454.265625 112.550781 L 267.964844 532.039062 L -11.695312 407.839844 Z M 174.605469 -11.652344 " fill-opacity="1" fill-rule="nonzero"/></g></g></g></g></g></g></g></g><g clip-path="url(#1562d96891)"><g clip-path="url(#2f55ffe047)"><g transform="matrix(1, 0, 0, 1, 188, 230)"><g clip-path="url(#f0f9027a8d)"><g clip-path="url(#bf5db721c0)"><g clip-path="url(#46c4b3ddb2)"><path fill="#ce8ca5" d="M 0.0273438 0.03125 L 306.027344 0.03125 L 306.027344 459.03125 L 0.0273438 459.03125 Z M 0.0273438 0.03125 " fill-opacity="1" fill-rule="nonzero"/></g></g></g></g></g></g><g fill="#4a1942" fill-opacity="1"><g transform="translate(213.787013, 303.76477)"><g><path d="M 2.34375 -19.5625 C 2.34375 -25.539062 3.5 -30.25 5.8125 -33.6875 C 8.125 -37.132812 11.851562 -38.859375 17 -38.859375 C 22.144531 -38.859375 25.875 -37.132812 28.1875 -33.6875 C 30.5 -30.25 31.65625 -25.539062 31.65625 -19.5625 C 31.65625 -13.507812 30.5 -8.757812 28.1875 -5.3125 C 25.875 -1.875 22.144531 -0.15625 17 -0.15625 C 11.851562 -0.15625 8.125 -1.875 5.8125 -5.3125 C 3.5 -8.757812 2.34375 -13.507812 2.34375 -19.5625 Z M 22.890625 -19.5625 C 22.890625 -23.070312 22.507812 -25.773438 21.75 -27.671875 C 20.988281 -29.566406 19.40625 -30.515625 17 -30.515625 C 14.601562 -30.515625 13.019531 -29.566406 12.25 -27.671875 C 11.488281 -25.773438 11.109375 -23.070312 11.109375 -19.5625 C 11.109375 -17.195312 11.242188 -15.238281 11.515625 -13.6875 C 11.796875 -12.144531 12.363281 -10.894531 13.21875 -9.9375 C 14.070312 -8.976562 15.332031 -8.5 17 -8.5 C 18.664062 -8.5 19.925781 -8.976562 20.78125 -9.9375 C 21.632812 -10.894531 22.195312 -12.144531 22.46875 -13.6875 C 22.75 -15.238281 22.890625 -17.195312 22.890625 -19.5625 Z M 22.890625 -19.5625 "/></g></g></g><g fill="#4a1942" fill-opacity="1"><g transform="translate(247.787775, 303.76477)"><g><path d="M 1.40625 -29.78125 L 1.40625 -38.078125 L 15.859375 -38.078125 L 15.859375 0 L 6.578125 0 L 6.578125 -29.78125 Z M 1.40625 -29.78125 "/></g></g></g><g fill="#ffffff" fill-opacity="1"><g transform="translate(470.397858, 190.352803)"><g><path d="M 10.53125 -16.640625 C 13.101562 -22.035156 16.175781 -25.789062 19.75 -27.90625 C 23.320312 -30.019531 27.429688 -29.972656 32.078125 -27.765625 C 36.722656 -25.546875 39.347656 -22.382812 39.953125 -18.28125 C 40.554688 -14.175781 39.570312 -9.425781 37 -4.03125 C 34.394531 1.425781 31.304688 5.210938 27.734375 7.328125 C 24.160156 9.441406 20.050781 9.390625 15.40625 7.171875 C 10.757812 4.960938 8.132812 1.804688 7.53125 -2.296875 C 6.925781 -6.398438 7.925781 -11.179688 10.53125 -16.640625 Z M 29.078125 -7.796875 C 30.585938 -10.960938 31.410156 -13.566406 31.546875 -15.609375 C 31.679688 -17.648438 30.660156 -19.191406 28.484375 -20.234375 C 26.316406 -21.265625 24.476562 -21.085938 22.96875 -19.703125 C 21.46875 -18.316406 19.960938 -16.039062 18.453125 -12.875 C 17.429688 -10.738281 16.710938 -8.910156 16.296875 -7.390625 C 15.878906 -5.878906 15.847656 -4.507812 16.203125 -3.28125 C 16.566406 -2.050781 17.5 -1.078125 19 -0.359375 C 20.5 0.359375 21.835938 0.472656 23.015625 -0.015625 C 24.203125 -0.515625 25.253906 -1.398438 26.171875 -2.671875 C 27.085938 -3.953125 28.054688 -5.660156 29.078125 -7.796875 Z M 29.078125 -7.796875 "/></g></g></g><g fill="#ffffff" fill-opacity="1"><g transform="translate(501.087148, 204.989036)"><g><path d="M 4.90625 -5.5625 C 6.375 -5.90625 7.050781 -6.066406 6.9375 -6.046875 C 11.21875 -7.128906 14.632812 -8.0625 17.1875 -8.84375 C 19.738281 -9.625 22.050781 -10.617188 24.125 -11.828125 C 26.195312 -13.035156 27.640625 -14.488281 28.453125 -16.1875 C 29.066406 -17.46875 29.25 -18.609375 29 -19.609375 C 28.75 -20.617188 28.03125 -21.40625 26.84375 -21.96875 C 25.644531 -22.539062 24.492188 -22.539062 23.390625 -21.96875 C 22.285156 -21.40625 21.347656 -20.3125 20.578125 -18.6875 L 12.828125 -22.390625 C 14.140625 -25.015625 15.765625 -26.960938 17.703125 -28.234375 C 19.648438 -29.515625 21.710938 -30.148438 23.890625 -30.140625 C 26.066406 -30.140625 28.238281 -29.625 30.40625 -28.59375 C 34.132812 -26.8125 36.492188 -24.515625 37.484375 -21.703125 C 38.472656 -18.890625 38.234375 -15.945312 36.765625 -12.875 C 35.160156 -9.519531 32.523438 -6.945312 28.859375 -5.15625 C 25.203125 -3.375 20.953125 -1.960938 16.109375 -0.921875 L 28.8125 5.125 L 25.6875 11.671875 L 2.046875 0.40625 Z M 4.90625 -5.5625 "/></g></g></g><g fill="#ffffff" fill-opacity="1"><g transform="translate(709.249632, 183.377124)"><g><path d="M 15.484375 -12.171875 C 19.710938 -16.398438 23.863281 -18.914062 27.9375 -19.71875 C 32.007812 -20.519531 35.863281 -19.101562 39.5 -15.46875 C 43.144531 -11.820312 44.566406 -7.960938 43.765625 -3.890625 C 42.960938 0.179688 40.445312 4.332031 36.21875 8.5625 C 31.9375 12.84375 27.757812 15.378906 23.6875 16.171875 C 19.625 16.972656 15.769531 15.550781 12.125 11.90625 C 8.488281 8.269531 7.066406 4.414062 7.859375 0.34375 C 8.660156 -3.71875 11.203125 -7.890625 15.484375 -12.171875 Z M 30.015625 2.359375 C 32.503906 -0.128906 34.148438 -2.3125 34.953125 -4.1875 C 35.753906 -6.0625 35.300781 -7.851562 33.59375 -9.5625 C 31.90625 -11.25 30.117188 -11.691406 28.234375 -10.890625 C 26.359375 -10.097656 24.175781 -8.457031 21.6875 -5.96875 C 20.019531 -4.300781 18.734375 -2.820312 17.828125 -1.53125 C 16.929688 -0.25 16.445312 1.03125 16.375 2.3125 C 16.300781 3.59375 16.851562 4.820312 18.03125 6 C 19.207031 7.175781 20.4375 7.726562 21.71875 7.65625 C 23 7.582031 24.285156 7.097656 25.578125 6.203125 C 26.867188 5.304688 28.347656 4.023438 30.015625 2.359375 Z M 30.015625 2.359375 "/></g></g></g><g fill="#ffffff" fill-opacity="1"><g transform="translate(733.291801, 207.419293)"><g><path d="M 21.203125 -17.453125 C 23.929688 -19.972656 26.816406 -21.132812 29.859375 -20.9375 C 32.910156 -20.75 35.828125 -19.265625 38.609375 -16.484375 C 40.453125 -14.640625 41.710938 -12.738281 42.390625 -10.78125 C 43.066406 -8.820312 43.191406 -6.953125 42.765625 -5.171875 C 42.335938 -3.390625 41.4375 -1.8125 40.0625 -0.4375 C 38.4375 1.1875 36.707031 2.101562 34.875 2.3125 C 33.039062 2.519531 31.398438 2.265625 29.953125 1.546875 L 29.796875 1.703125 C 30.734375 3.578125 31.066406 5.457031 30.796875 7.34375 C 30.523438 9.226562 29.539062 11.019531 27.84375 12.71875 C 26.3125 14.25 24.613281 15.25 22.75 15.71875 C 20.882812 16.1875 18.945312 16.078125 16.9375 15.390625 C 14.9375 14.710938 13.015625 13.453125 11.171875 11.609375 C 8.222656 8.660156 6.59375 5.582031 6.28125 2.375 C 5.976562 -0.820312 7.238281 -3.9375 10.0625 -6.96875 L 16.1875 -0.84375 C 15.132812 0.269531 14.585938 1.429688 14.546875 2.640625 C 14.515625 3.859375 15.0625 5.03125 16.1875 6.15625 C 17.144531 7.113281 18.164062 7.582031 19.25 7.5625 C 20.332031 7.539062 21.332031 7.070312 22.25 6.15625 C 23.425781 4.976562 23.898438 3.75 23.671875 2.46875 C 23.453125 1.195312 22.519531 -0.257812 20.875 -1.90625 L 19.6875 -3.09375 L 24.8125 -8.21875 L 26 -7.03125 C 27.25 -5.78125 28.472656 -4.984375 29.671875 -4.640625 C 30.878906 -4.304688 32.035156 -4.691406 33.140625 -5.796875 C 34.023438 -6.679688 34.46875 -7.613281 34.46875 -8.59375 C 34.46875 -9.570312 34.039062 -10.488281 33.1875 -11.34375 C 32.25 -12.28125 31.269531 -12.691406 30.25 -12.578125 C 29.238281 -12.472656 28.28125 -12.039062 27.375 -11.28125 Z M 21.203125 -17.453125 "/></g></g></g><g fill="#4a1942" fill-opacity="1"><g transform="translate(979.446576, 276.713745)"><g><path d="M 18.75 -6.0625 C 24.175781 -8.570312 28.9375 -9.492188 33.03125 -8.828125 C 37.125 -8.171875 40.25 -5.503906 42.40625 -0.828125 C 44.550781 3.847656 44.546875 7.953125 42.390625 11.484375 C 40.234375 15.023438 36.441406 18.050781 31.015625 20.5625 C 25.515625 23.09375 20.71875 24.03125 16.625 23.375 C 12.53125 22.71875 9.410156 20.050781 7.265625 15.375 C 5.109375 10.695312 5.109375 6.585938 7.265625 3.046875 C 9.421875 -0.492188 13.25 -3.53125 18.75 -6.0625 Z M 27.34375 12.59375 C 30.53125 11.125 32.828125 9.644531 34.234375 8.15625 C 35.640625 6.675781 35.84375 4.84375 34.84375 2.65625 C 33.832031 0.476562 32.304688 -0.554688 30.265625 -0.453125 C 28.222656 -0.347656 25.609375 0.4375 22.421875 1.90625 C 20.273438 2.894531 18.554688 3.835938 17.265625 4.734375 C 15.972656 5.628906 15.070312 6.664062 14.5625 7.84375 C 14.050781 9.019531 14.144531 10.363281 14.84375 11.875 C 15.539062 13.382812 16.5 14.328125 17.71875 14.703125 C 18.945312 15.078125 20.320312 15.066406 21.84375 14.671875 C 23.363281 14.273438 25.195312 13.582031 27.34375 12.59375 Z M 27.34375 12.59375 "/></g></g></g><g fill="#4a1942" fill-opacity="1"><g transform="translate(993.683175, 307.59045)"><g><path d="M 7.234375 -0.515625 L 13.78125 -3.53125 L 42.0625 1.5625 L 46.234375 10.609375 L 25.3125 20.25 L 27.109375 24.140625 L 20.09375 27.375 L 18.296875 23.484375 L 12.140625 26.328125 L 8.40625 18.234375 L 14.5625 15.390625 Z M 33.875 7.171875 L 18.171875 4.765625 L 21.84375 12.71875 Z M 33.875 7.171875 "/></g></g></g><g fill="#ffffff" fill-opacity="1"><g transform="translate(1181.062514, 414.404699)"><g><path d="M 19.5 2.8125 C 25.46875 2.957031 30.144531 4.226562 33.53125 6.625 C 36.925781 9.019531 38.5625 12.789062 38.4375 17.9375 C 38.3125 23.082031 36.5 26.765625 33 28.984375 C 29.5 31.210938 24.765625 32.253906 18.796875 32.109375 C 12.742188 31.960938 8.023438 30.691406 4.640625 28.296875 C 1.253906 25.910156 -0.375 22.144531 -0.25 17 C -0.125 11.851562 1.679688 8.164062 5.171875 5.9375 C 8.671875 3.707031 13.445312 2.664062 19.5 2.8125 Z M 19.015625 23.359375 C 22.523438 23.441406 25.234375 23.125 27.140625 22.40625 C 29.046875 21.695312 30.03125 20.140625 30.09375 17.734375 C 30.144531 15.335938 29.234375 13.734375 27.359375 12.921875 C 25.492188 12.109375 22.804688 11.660156 19.296875 11.578125 C 16.929688 11.523438 14.972656 11.617188 13.421875 11.859375 C 11.867188 12.097656 10.601562 12.628906 9.625 13.453125 C 8.644531 14.285156 8.132812 15.535156 8.09375 17.203125 C 8.050781 18.867188 8.5 20.140625 9.4375 21.015625 C 10.375 21.898438 11.613281 22.5 13.15625 22.8125 C 14.695312 23.125 16.648438 23.304688 19.015625 23.359375 Z M 19.015625 23.359375 "/></g></g></g><g fill="#ffffff" fill-opacity="1"><g transform="translate(1180.241199, 448.395541)"><g><path d="M 29.578125 29.875 L 29.96875 13.609375 L 22.796875 13.4375 C 23.535156 14.144531 24.132812 15.132812 24.59375 16.40625 C 25.050781 17.675781 25.257812 19.039062 25.21875 20.5 C 25.15625 23.101562 24.515625 25.25 23.296875 26.9375 C 22.078125 28.625 20.519531 29.84375 18.625 30.59375 C 16.726562 31.351562 14.6875 31.703125 12.5 31.640625 C 8.425781 31.546875 5.222656 30.328125 2.890625 27.984375 C 0.566406 25.640625 -0.539062 22.378906 -0.4375 18.203125 C -0.375 15.421875 0.160156 13.015625 1.171875 10.984375 C 2.179688 8.953125 3.550781 7.398438 5.28125 6.328125 C 7.007812 5.253906 8.984375 4.691406 11.203125 4.640625 L 11 13.359375 C 9.914062 13.546875 9.007812 14.03125 8.28125 14.8125 C 7.550781 15.59375 7.164062 16.679688 7.125 18.078125 C 7.09375 19.710938 7.585938 20.941406 8.609375 21.765625 C 9.628906 22.585938 11.007812 23.019531 12.75 23.0625 C 14.457031 23.101562 15.769531 22.71875 16.6875 21.90625 C 17.613281 21.09375 18.09375 19.890625 18.125 18.296875 C 18.15625 17.109375 17.894531 16.125 17.34375 15.34375 C 16.789062 14.5625 16.046875 14.039062 15.109375 13.78125 L 15.328125 5.171875 L 38 5.71875 L 37.40625 30.0625 Z M 29.578125 29.875 "/></g></g></g></svg>