<svg xmlns="http://www.w3.org/2000/svg" xmlns:xlink="http://www.w3.org/1999/xlink" width="1920" zoomAndPan="magnify" viewBox="0 0 1440 809.999993" height="1080" preserveAspectRatio="xMidYMid meet" version="1.0"><defs><clipPath id="2579a015d7"><path d="M 718 382 L 1226 382 L 1226 688.953125 L 718 688.953125 Z M 718 382 " clip-rule="nonzero"/></clipPath><clipPath id="0d0875f125"><path d="M 1225.164062 421.207031 L 1225.164062 650.703125 C 1225.164062 660.847656 1221.132812 670.578125 1213.960938 677.75 C 1206.789062 684.925781 1197.058594 688.953125 1186.914062 688.953125 L 756.339844 688.953125 C 746.195312 688.953125 736.46875 684.925781 729.292969 677.75 C 722.121094 670.578125 718.089844 660.847656 718.089844 650.703125 L 718.089844 421.207031 C 718.089844 411.0625 722.121094 401.332031 729.292969 394.160156 C 736.46875 386.984375 746.195312 382.957031 756.339844 382.957031 L 1186.914062 382.957031 C 1197.058594 382.957031 1206.789062 386.984375 1213.960938 394.160156 C 1221.132812 401.332031 1225.164062 411.0625 1225.164062 421.207031 Z M 1225.164062 421.207031 " clip-rule="nonzero"/></clipPath><clipPath id="89ccda434a"><path d="M 0.078125 0.800781 L 507.199219 0.800781 L 507.199219 306.953125 L 0.078125 306.953125 Z M 0.078125 0.800781 " clip-rule="nonzero"/></clipPath><clipPath id="ddf6bbac2d"><path d="M 507.164062 39.207031 L 507.164062 268.703125 C 507.164062 278.847656 503.132812 288.578125 495.960938 295.75 C 488.789062 302.925781 479.058594 306.953125 468.914062 306.953125 L 38.339844 306.953125 C 28.195312 306.953125 18.46875 302.925781 11.292969 295.75 C 4.121094 288.578125 0.0898438 278.847656 0.0898438 268.703125 L 0.0898438 39.207031 C 0.0898438 29.0625 4.121094 19.332031 11.292969 12.160156 C 18.46875 4.984375 28.195312 0.957031 38.339844 0.957031 L 468.914062 0.957031 C 479.058594 0.957031 488.789062 4.984375 495.960938 12.160156 C 503.132812 19.332031 507.164062 29.0625 507.164062 39.207031 Z M 507.164062 39.207031 " clip-rule="nonzero"/></clipPath><clipPath id="5708c5d8e5"><rect x="0" width="508" y="0" height="307"/></clipPath><clipPath id="9860b448d2"><path d="M 604 233 L 1127 233 L 1127 686 L 604 686 Z M 604 233 " clip-rule="nonzero"/></clipPath><clipPath id="a1761b1d0b"><path d="M 1003.875 219.109375 L 1140.105469 494.445312 L 726.566406 699.054688 L 590.335938 423.71875 Z M 1003.875 219.109375 " clip-rule="nonzero"/></clipPath><clipPath id="eb487b6ebc"><path d="M 1020.296875 254.996094 L 1122.070312 460.691406 C 1126.570312 469.785156 1127.273438 480.292969 1124.023438 489.902344 C 1120.777344 499.511719 1113.84375 507.441406 1104.75 511.9375 L 761.652344 681.695312 C 752.558594 686.191406 742.050781 686.894531 732.441406 683.648438 C 722.832031 680.398438 714.90625 673.464844 710.40625 664.371094 L 608.632812 458.675781 C 604.132812 449.582031 603.429688 439.074219 606.679688 429.464844 C 609.929688 419.855469 616.859375 411.925781 625.953125 407.429688 L 969.050781 237.671875 C 978.144531 233.175781 988.652344 232.472656 998.261719 235.71875 C 1007.871094 238.96875 1015.796875 245.902344 1020.296875 254.996094 Z M 1020.296875 254.996094 " clip-rule="nonzero"/></clipPath><clipPath id="18e049f0a4"><path d="M 0 0 L 523 0 L 523 453 L 0 453 Z M 0 0 " clip-rule="nonzero"/></clipPath><clipPath id="44f31b52c5"><path d="M 399.875 -13.890625 L 536.105469 261.445312 L 122.566406 466.054688 L -13.664062 190.71875 Z M 399.875 -13.890625 " clip-rule="nonzero"/></clipPath><clipPath id="4002ecd298"><path d="M 416.296875 21.996094 L 518.070312 227.691406 C 522.570312 236.785156 523.273438 247.292969 520.023438 256.902344 C 516.777344 266.511719 509.84375 274.441406 500.75 278.9375 L 157.652344 448.695312 C 148.558594 453.191406 138.050781 453.894531 128.441406 450.648438 C 118.832031 447.398438 110.90625 440.464844 106.40625 431.371094 L 4.632812 225.675781 C 0.132812 216.582031 -0.570312 206.074219 2.679688 196.464844 C 5.929688 186.855469 12.859375 178.925781 21.953125 174.429688 L 365.050781 4.671875 C 374.144531 0.175781 384.652344 -0.527344 394.261719 2.71875 C 403.871094 5.96875 411.796875 12.902344 416.296875 21.996094 Z M 416.296875 21.996094 " clip-rule="nonzero"/></clipPath><clipPath id="acdbb82178"><rect x="0" width="523" y="0" height="453"/></clipPath><clipPath id="3d45150a72"><path d="M 416 127 L 924 127 L 924 639 L 416 639 Z M 416 127 " clip-rule="nonzero"/></clipPath><clipPath id="a9d68a3684"><path d="M 719.054688 109.660156 L 940.578125 322.488281 L 620.925781 655.207031 L 399.402344 442.378906 Z M 719.054688 109.660156 " clip-rule="nonzero"/></clipPath><clipPath id="67598dc778"><path d="M 746.671875 137.851562 L 912.167969 296.847656 C 919.484375 303.878906 923.707031 313.523438 923.910156 323.667969 C 924.113281 333.808594 920.28125 343.617188 913.25 350.933594 L 648.046875 626.976562 C 641.019531 634.289062 631.371094 638.515625 621.230469 638.71875 C 611.085938 638.921875 601.28125 635.085938 593.964844 628.058594 L 428.46875 469.058594 C 421.152344 462.03125 416.929688 452.386719 416.726562 442.242188 C 416.523438 432.101562 420.355469 422.292969 427.382812 414.976562 L 692.589844 138.933594 C 699.617188 131.617188 709.265625 127.394531 719.40625 127.191406 C 729.550781 126.988281 739.355469 130.824219 746.671875 137.851562 Z M 746.671875 137.851562 " clip-rule="nonzero"/></clipPath><clipPath id="3196a012c1"><path d="M 0.398438 0 L 508 0 L 508 512 L 0.398438 512 Z M 0.398438 0 " clip-rule="nonzero"/></clipPath><clipPath id="9c280fa601"><path d="M 303.054688 -17.339844 L 524.578125 195.488281 L 204.925781 528.207031 L -16.597656 315.378906 Z M 303.054688 -17.339844 " clip-rule="nonzero"/></clipPath><clipPath id="c7266ca7aa"><path d="M 330.671875 10.851562 L 496.167969 169.847656 C 503.484375 176.878906 507.707031 186.523438 507.910156 196.667969 C 508.113281 206.808594 504.28125 216.617188 497.25 223.933594 L 232.046875 499.976562 C 225.019531 507.289062 215.371094 511.515625 205.230469 511.71875 C 195.085938 511.921875 185.28125 508.085938 177.964844 501.058594 L 12.46875 342.058594 C 5.152344 335.03125 0.929688 325.386719 0.726562 315.242188 C 0.523438 305.101562 4.355469 295.292969 11.382812 287.976562 L 276.589844 11.933594 C 283.617188 4.617188 293.265625 0.394531 303.40625 0.191406 C 313.550781 -0.0117188 323.355469 3.824219 330.671875 10.851562 Z M 330.671875 10.851562 " clip-rule="nonzero"/></clipPath><clipPath id="3750eccab6"><rect x="0" width="508" y="0" height="512"/></clipPath><clipPath id="31c9e38061"><path d="M 271 123 L 714 123 L 714 644 L 271 644 Z M 271 123 " clip-rule="nonzero"/></clipPath><clipPath id="233d72a8dc"><path d="M 445.199219 109.773438 L 725.949219 234.460938 L 538.675781 656.132812 L 257.925781 531.445312 Z M 445.199219 109.773438 " clip-rule="nonzero"/></clipPath><clipPath id="57c4987a48"><path d="M 480.761719 126.875 L 690.507812 220.027344 C 699.777344 224.144531 707.035156 231.777344 710.679688 241.242188 C 714.320312 250.710938 714.054688 261.238281 709.9375 270.507812 L 554.566406 620.355469 C 550.449219 629.625 542.816406 636.882812 533.347656 640.527344 C 523.882812 644.171875 513.355469 643.90625 504.082031 639.789062 L 294.339844 546.636719 C 285.066406 542.519531 277.8125 534.886719 274.167969 525.417969 C 270.523438 515.953125 270.789062 505.425781 274.90625 496.152344 L 430.28125 146.308594 C 434.398438 137.035156 442.027344 129.78125 451.496094 126.136719 C 460.964844 122.492188 471.492188 122.757812 480.761719 126.875 Z M 480.761719 126.875 " clip-rule="nonzero"/></clipPath><clipPath id="fd7f7ff0a5"><path d="M 0 0 L 443 0 L 443 521 L 0 521 Z M 0 0 " clip-rule="nonzero"/></clipPath><clipPath id="349160b4df"><path d="M 174.199219 -13.226562 L 454.949219 111.460938 L 267.675781 533.132812 L -13.074219 408.445312 Z M 174.199219 -13.226562 " clip-rule="nonzero"/></clipPath><clipPath id="19a59a0c2f"><path d="M 209.761719 3.875 L 419.507812 97.027344 C 428.777344 101.144531 436.035156 108.777344 439.679688 118.242188 C 443.320312 127.710938 443.054688 138.238281 438.9375 147.507812 L 283.566406 497.355469 C 279.449219 506.625 271.816406 513.882812 262.347656 517.527344 C 252.882812 521.171875 242.355469 520.90625 233.082031 516.789062 L 23.339844 423.636719 C 14.066406 419.519531 6.8125 411.886719 3.167969 402.417969 C -0.476562 392.953125 -0.210938 382.425781 3.90625 373.152344 L 159.28125 23.308594 C 163.398438 14.035156 171.027344 6.78125 180.496094 3.136719 C 189.964844 -0.507812 200.492188 -0.242188 209.761719 3.875 Z M 209.761719 3.875 " clip-rule="nonzero"/></clipPath><clipPath id="cfee438136"><rect x="0" width="443" y="0" height="521"/></clipPath><clipPath id="0d149671e5"><path d="M 161 230 L 467.222656 230 L 467.222656 690 L 161 690 Z M 161 230 " clip-rule="nonzero"/></clipPath><clipPath id="5d0539f6ae"><path d="M 199.476562 230.03125 L 428.972656 230.03125 C 439.117188 230.03125 448.847656 234.0625 456.019531 241.234375 C 463.195312 248.40625 467.222656 258.136719 467.222656 268.28125 L 467.222656 651.078125 C 467.222656 661.222656 463.195312 670.953125 456.019531 678.125 C 448.847656 685.296875 439.117188 689.328125 428.972656 689.328125 L 199.476562 689.328125 C 189.332031 689.328125 179.601562 685.296875 172.429688 678.125 C 165.253906 670.953125 161.226562 661.222656 161.226562 651.078125 L 161.226562 268.28125 C 161.226562 258.136719 165.253906 248.40625 172.429688 241.234375 C 179.601562 234.0625 189.332031 230.03125 199.476562 230.03125 Z M 199.476562 230.03125 " clip-rule="nonzero"/></clipPath><clipPath id="d51542a229"><path d="M 0.0390625 0 L 306.222656 0 L 306.222656 459.519531 L 0.0390625 459.519531 Z M 0.0390625 0 " clip-rule="nonzero"/></clipPath><clipPath id="f6c839a372"><path d="M 38.476562 0.03125 L 267.972656 0.03125 C 278.117188 0.03125 287.847656 4.0625 295.019531 11.234375 C 302.195312 18.40625 306.222656 28.136719 306.222656 38.28125 L 306.222656 421.078125 C 306.222656 431.222656 302.195312 440.953125 295.019531 448.125 C 287.847656 455.296875 278.117188 459.328125 267.972656 459.328125 L 38.476562 459.328125 C 28.332031 459.328125 18.601562 455.296875 11.429688 448.125 C 4.253906 440.953125 0.226562 431.222656 0.226562 421.078125 L 0.226562 38.28125 C 0.226562 28.136719 4.253906 18.40625 11.429688 11.234375 C 18.601562 4.0625 28.332031 0.03125 38.476562 0.03125 Z M 38.476562 0.03125 " clip-rule="nonzero"/></clipPath><clipPath id="46d3ea3cb6"><rect x="0" width="307" y="0" height="460"/></clipPath></defs><g clip-path="url(#2579a015d7)"><g clip-path="url(#0d0875f125)"><g transform="matrix(1, 0, 0, 1, 718, 382)"><g clip-path="url(#5708c5d8e5)"><g clip-path="url(#89ccda434a)"><g clip-path="url(#ddf6bbac2d)"><path fill="#2b192e" d="M 507.164062 0.957031 L 507.164062 306.953125 L 0.351562 306.953125 L 0.351562 0.957031 Z M 507.164062 0.957031 " fill-opacity="1" fill-rule="nonzero"/></g></g></g></g></g></g><g clip-path="url(#9860b448d2)"><g clip-path="url(#a1761b1d0b)"><g clip-path="url(#eb487b6ebc)"><g transform="matrix(1, 0, 0, 1, 604, 233)"><g clip-path="url(#acdbb82178)"><g clip-path="url(#18e049f0a4)"><g clip-path="url(#44f31b52c5)"><g clip-path="url(#4002ecd298)"><path fill="#ce8ca5" d="M 399.335938 -12.289062 L 535.035156 261.976562 L 123.636719 465.523438 L -12.0625 191.257812 Z M 399.335938 -12.289062 " fill-opacity="1" fill-rule="nonzero"/></g></g></g></g></g></g></g></g><g clip-path="url(#3d45150a72)"><g clip-path="url(#a9d68a3684)"><g clip-path="url(#67598dc778)"><g transform="matrix(1, 0, 0, 1, 416, 127)"><g clip-path="url(#3750eccab6)"><g clip-path="url(#3196a012c1)"><g clip-path="url(#9c280fa601)"><g clip-path="url(#c7266ca7aa)"><path fill="#50006c" d="M 303.089844 -15.648438 L 523.75 196.347656 L 205.753906 527.34375 L -14.910156 315.34375 Z M 303.089844 -15.648438 " fill-opacity="1" fill-rule="nonzero"/></g></g></g></g></g></g></g></g><g clip-path="url(#31c9e38061)"><g clip-path="url(#233d72a8dc)"><g clip-path="url(#57c4987a48)"><g transform="matrix(1, 0, 0, 1, 271, 123)"><g clip-path="url(#cfee438136)"><g clip-path="url(#fd7f7ff0a5)"><g clip-path="url(#349160b4df)"><g clip-path="url(#19a59a0c2f)"><path fill="#2b192e" d="M 174.804688 -11.652344 L 454.464844 112.550781 L 268.160156 532.039062 L -11.5 407.839844 Z M 174.804688 -11.652344 " fill-opacity="1" fill-rule="nonzero"/></g></g></g></g></g></g></g></g><g clip-path="url(#0d149671e5)"><g clip-path="url(#5d0539f6ae)"><g transform="matrix(1, 0, 0, 1, 161, 230)"><g clip-path="url(#46d3ea3cb6)"><g clip-path="url(#d51542a229)"><g clip-path="url(#f6c839a372)"><path fill="#ce8ca5" d="M 0.226562 0.03125 L 306.222656 0.03125 L 306.222656 459.03125 L 0.226562 459.03125 Z M 0.226562 0.03125 " fill-opacity="1" fill-rule="nonzero"/></g></g></g></g></g></g></svg>